UbuntuSansMono-Thin.ufo
<glyph name="boxHeavyHorizontal" format="2">
  <advance width="560"/>
  <unicode hex="2501"/>
  <outline>
    <contour>
      <point x="-5" y="277" type="line"/>
      <point x="565" y="277" type="line"/>
      <point x="565" y="343" type="line"/>
      <point x="-5" y="343" type="line"/>
    </contour>
  </outline>
</glyph>
<glyph name="boxLightTripleDashHorizontal" format="2">
  <advance width="560"/>
  <unicode hex="2504"/>
  <outline>
    <contour>
      <point x="404" y="294" type="line"/>
      <point x="529" y="294" type="line"/>
      <point x="529" y="327" type="line"/>
      <point x="404" y="327" type="line"/>
    </contour>
    <contour>
      <point x="31" y="294" type="line"/>
      <point x="156" y="294" type="line"/>
      <point x="156" y="327" type="line"/>
      <point x="31" y="327" type="line"/>
    </contour>
    <contour>
      <point x="218" y="294" type="line"/>
      <point x="342" y="294" type="line"/>
      <point x="342" y="327" type="line"/>
      <point x="218" y="327" type="line"/>
    </contour>
  </outline>
</glyph>
<glyph name="boxHeavyDownAndRight" format="2">
  <advance width="560"/>
  <unicode hex="250F"/>
  <outline>
    <contour>
      <point x="247" y="-300" type="line"/>
      <point x="313" y="-300" type="line"/>
      <point x="313" y="277" type="line"/>
      <point x="565" y="277" type="line"/>
      <point x="565" y="343" type="line"/>
      <point x="247" y="343" type="line"/>
    </contour>
  </outline>
</glyph>
<glyph name="boxLightUpAndLeft" format="2">
  <advance width="560"/>
  <unicode hex="2518"/>
  <outline>
    <contour>
      <point x="-5" y="294" type="line"/>
      <point x="297" y="294" type="line"/>
      <point x="297" y="920" type="line"/>
      <point x="264" y="920" type="line"/>
      <point x="264" y="327" type="line"/>
      <point x="-5" y="327" type="line"/>
    </contour>
  </outline>
</glyph>
<glyph name="boxHeavyUpAndLeft" format="2">
  <advance width="560"/>
  <unicode hex="251B"/>
  <outline>
    <contour>
      <point x="-5" y="277" type="line"/>
      <point x="313" y="277" type="line"/>
      <point x="313" y="920" type="line"/>
      <point x="247" y="920" type="line"/>
      <point x="247" y="343" type="line"/>
      <point x="-5" y="343" type="line"/>
    </contour>
  </outline>
</glyph>
<glyph name="boxLightVerticalAndRight" format="2">
  <advance width="560"/>
  <unicode hex="251C"/>
  <outline>
    <contour>
      <point x="264" y="-300" type="line"/>
      <point x="297" y="-300" type="line"/>
      <point x="297" y="294" type="line"/>
      <point x="565" y="294" type="line"/>
      <point x="565" y="327" type="line"/>
      <point x="297" y="327" type="line"/>
      <point x="297" y="920" type="line"/>
      <point x="264" y="920" type="line"/>
    </contour>
  </outline>
</glyph>
<glyph name="boxUpLightAndLeftDownHeavy" format="2">
  <advance width="560"/>
  <unicode hex="252A"/>
  <outline>
    <contour>
      <point x="247" y="-300" type="line"/>
      <point x="313" y="-300" type="line"/>
      <point x="313" y="343" type="line"/>
      <point x="297" y="343" type="line"/>
      <point x="297" y="920" type="line"/>
      <point x="264" y="920" type="line"/>
      <point x="264" y="343" type="line"/>
      <point x="-5" y="343" type="line"/>
      <point x="-5" y="277" type="line"/>
      <point x="247" y="277" type="line"/>
    </contour>
  </outline>
</glyph>
<glyph name="boxRightLightAndLeftDownHeavy" format="2">
  <advance width="560"/>
  <unicode hex="2531"/>
  <outline>
    <contour>
      <point x="247" y="-300" type="line"/>
      <point x="313" y="-300" type="line"/>
      <point x="313" y="294" type="line"/>
      <point x="565" y="294" type="line"/>
      <point x="565" y="327" type="line"/>
      <point x="313" y="327" type="line"/>
      <point x="313" y="343" type="line"/>
      <point x="-5" y="343" type="line"/>
      <point x="-5" y="277" type="line"/>
      <point x="247" y="277" type="line"/>
    </contour>
  </outline>
</glyph>
<glyph name="boxRightHeavyAndLeftUpLight" format="2">
  <advance width="560"/>
  <unicode hex="2536"/>
  <outline>
    <contour>
      <point x="264" y="277" type="line"/>
      <point x="565" y="277" type="line"/>
      <point x="565" y="343" type="line"/>
      <point x="297" y="343" type="line"/>
      <point x="297" y="920" type="line"/>
      <point x="264" y="920" type="line"/>
      <point x="264" y="327" type="line"/>
      <point x="-5" y="327" type="line"/>
      <point x="-5" y="294" type="line"/>
      <point x="264" y="294" type="line"/>
    </contour>
  </outline>
</glyph>
<glyph name="boxUpHeavyAndHorizontalLight" format="2">
  <advance width="560"/>
  <unicode hex="2538"/>
  <outline>
    <contour>
      <point x="-5" y="294" type="line"/>
      <point x="565" y="294" type="line"/>
      <point x="565" y="327" type="line"/>
      <point x="313" y="327" type="line"/>
      <point x="313" y="920" type="line"/>
      <point x="247" y="920" type="line"/>
      <point x="247" y="327" type="line"/>
      <point x="-5" y="327" type="line"/>
    </contour>
  </outline>
</glyph>
<glyph name="boxHeavyDoubleDashHorizontal" format="2">
  <advance width="560"/>
  <unicode hex="254D"/>
  <outline>
    <contour>
      <point x="350" y="277" type="line"/>
      <point x="490" y="277" type="line"/>
      <point x="490" y="343" type="line"/>
      <point x="350" y="343" type="line"/>
    </contour>
    <contour>
      <point x="70" y="277" type="line"/>
      <point x="210" y="277" type="line"/>
      <point x="210" y="343" type="line"/>
      <point x="70" y="343" type="line"/>
    </contour>
  </outline>
</glyph>
<glyph name="boxLightDoubleDashVertical" format="2">
  <advance width="560"/>
  <unicode hex="254E"/>
  <outline>
    <contour>
      <point x="264" y="435" type="line"/>
      <point x="297" y="435" type="line"/>
      <point x="297" y="685" type="line"/>
      <point x="264" y="685" type="line"/>
    </contour>
    <contour>
      <point x="264" y="-65" type="line"/>
      <point x="297" y="-65" type="line"/>
      <point x="297" y="185" type="line"/>
      <point x="264" y="185" type="line"/>
    </contour>
  </outline>
</glyph>
<glyph name="boxUpSingleAndLeftDouble" format="2">
  <advance width="560"/>
  <unicode hex="255B"/>
  <outline>
    <contour>
      <point x="-5" y="261" type="line"/>
      <point x="297" y="261" type="line"/>
      <point x="297" y="920" type="line"/>
      <point x="264" y="920" type="line"/>
      <point x="264" y="360" type="line"/>
      <point x="-5" y="360" type="line"/>
      <point x="-5" y="327" type="line"/>
      <point x="264" y="327" type="line"/>
      <point x="264" y="294" type="line"/>
      <point x="-5" y="294" type="line"/>
    </contour>
  </outline>
</glyph>
<glyph name="boxDoubleUpAndHorizontal" format="2">
  <advance width="560"/>
  <unicode hex="2569"/>
  <outline>
    <contour>
      <point x="-5" y="327" type="line"/>
      <point x="264" y="327" type="line"/>
      <point x="264" y="920" type="line"/>
      <point x="231" y="920" type="line"/>
      <point x="231" y="360" type="line"/>
      <point x="-5" y="360" type="line"/>
    </contour>
    <contour>
      <point x="-5" y="261" type="line"/>
      <point x="565" y="261" type="line"/>
      <point x="565" y="294" type="line"/>
      <point x="-5" y="294" type="line"/>
    </contour>
    <contour>
      <point x="297" y="327" type="line"/>
      <point x="565" y="327" type="line"/>
      <point x="565" y="360" type="line"/>
      <point x="330" y="360" type="line"/>
      <point x="330" y="920" type="line"/>
      <point x="297" y="920" type="line"/>
    </contour>
  </outline>
</glyph>
<glyph name="boxVerticalDoubleAndHorizontalSingle" format="2">
  <advance width="560"/>
  <unicode hex="256B"/>
  <outline>
    <contour>
      <point x="231" y="-300" type="line"/>
      <point x="264" y="-300" type="line"/>
      <point x="264" y="294" type="line"/>
      <point x="297" y="294" type="line"/>
      <point x="297" y="-300" type="line"/>
      <point x="330" y="-300" type="line"/>
      <point x="330" y="294" type="line"/>
      <point x="565" y="294" type="line"/>
      <point x="565" y="327" type="line"/>
      <point x="330" y="327" type="line"/>
      <point x="330" y="920" type="line"/>
      <point x="297" y="920" type="line"/>
      <point x="297" y="327" type="line"/>
      <point x="264" y="327" type="line"/>
      <point x="264" y="920" type="line"/>
      <point x="231" y="920" type="line"/>
      <point x="231" y="327" type="line"/>
      <point x="-5" y="327" type="line"/>
      <point x="-5" y="294" type="line"/>
      <point x="231" y="294" type="line"/>
    </contour>
  </outline>
</glyph>
<glyph name="boxLightArcUpAndLeft" format="2">
  <advance width="560"/>
  <unicode hex="256F"/>
  <outline>
    <contour>
      <point x="-5" y="294" type="line"/>
      <point x="47" y="294" type="line" smooth="yes"/>
      <point x="185" y="294"/>
      <point x="297" y="405"/>
      <point x="297" y="543" type="curve" smooth="yes"/>
      <point x="297" y="920" type="line"/>
      <point x="264" y="920" type="line"/>
      <point x="264" y="543" type="line" smooth="yes"/>
      <point x="264" y="424"/>
      <point x="166" y="327"/>
      <point x="47" y="327" type="curve" smooth="yes"/>
      <point x="-5" y="327" type="line"/>
    </contour>
  </outline>
</glyph>
<glyph name="boxLightArcUpAndRight" format="2">
  <advance width="560"/>
  <unicode hex="2570"/>
  <outline>
    <contour>
      <point x="513" y="294" type="curve" smooth="yes"/>
      <point x="565" y="294" type="line"/>
      <point x="565" y="327" type="line"/>
      <point x="513" y="327" type="line" smooth="yes"/>
      <point x="394" y="327"/>
      <point x="297" y="424"/>
      <point x="297" y="543" type="curve" smooth="yes"/>
      <point x="297" y="920" type="line"/>
      <point x="264" y="920" type="line"/>
      <point x="264" y="543" type="line" smooth="yes"/>
      <point x="264" y="405"/>
      <point x="375" y="294"/>
    </contour>
  </outline>
</glyph>
<glyph name="boxLightDiagonalCross" format="2">
  <advance width="560"/>
  <unicode hex="2573"/>
  <outline>
    <contour>
      <point x="0" y="-190" type="line"/>
      <point x="19" y="-190" type="line"/>
      <point x="280" y="276" type="line"/>
      <point x="541" y="-190" type="line"/>
      <point x="560" y="-190" type="line"/>
      <point x="560" y="-156" type="line"/>
      <point x="299" y="310" type="line"/>
      <point x="560" y="776" type="line"/>
      <point x="560" y="810" type="line"/>
      <point x="541" y="810" type="line"/>
      <point x="280" y="344" type="line"/>
      <point x="19" y="810" type="line"/>
      <point x="0" y="810" type="line"/>
      <point x="0" y="776" type="line"/>
      <point x="261" y="310" type="line"/>
      <point x="0" y="-156" type="line"/>
    </contour>
  </outline>
</glyph>
<glyph name="boxHeavyLeft" format="2">
  <advance width="560"/>
  <unicode hex="2578"/>
  <outline>
    <contour>
      <point x="-5" y="277" type="line"/>
      <point x="297" y="277" type="line"/>
      <point x="297" y="343" type="line"/>
      <point x="-5" y="343" type="line"/>
    </contour>
  </outline>
</glyph>
<glyph name="boxHeavyDown" format="2">
  <advance width="560"/>
  <unicode hex="257B"/>
  <outline>
    <contour>
      <point x="247" y="-300" type="line"/>
      <point x="313" y="-300" type="line"/>
      <point x="313" y="327" type="line"/>
      <point x="247" y="327" type="line"/>
    </contour>
  </outline>
</glyph>
<glyph name="lowerThreeQuartersBlock" format="2">
  <advance width="560"/>
  <unicode hex="2586"/>
  <outline>
    <contour>
      <point x="0" y="-290" type="line"/>
      <point x="560" y="-290" type="line"/>
      <point x="560" y="610" type="line"/>
      <point x="0" y="610" type="line"/>
    </contour>
  </outline>
</glyph>
<glyph name="lowerRightBlock" format="2">
  <advance width="560"/>
  <unicode hex="2597"/>
  <outline>
    <contour>
      <point x="280" y="-290" type="line"/>
      <point x="560" y="-290" type="line"/>
      <point x="560" y="310" type="line"/>
      <point x="280" y="310" type="line"/>
    </contour>
  </outline>
</glyph>
<glyph name="upperLeftAndLowerLeftAndLowerRightBlock" format="2">
  <advance width="560"/>
  <unicode hex="2599"/>
  <outline>
    <contour>
      <point x="0" y="-290" type="line"/>
      <point x="560" y="-290" type="line"/>
      <point x="560" y="310" type="line"/>
      <point x="280" y="310" type="line"/>
      <point x="280" y="910" type="line"/>
      <point x="0" y="910" type="line"/>
    </contour>
  </outline>
</glyph>
<glyph name="upperRightBlock" format="2">
  <advance width="560"/>
  <unicode hex="259D"/>
  <outline>
    <contour>
      <point x="280" y="310" type="line"/>
      <point x="560" y="310" type="line"/>
      <point x="560" y="910" type="line"/>
      <point x="280" y="910" type="line"/>
    </contour>
  </outline>
</glyph>
<glyph name="ballotBox" format="2">
  <advance width="560"/>
  <unicode hex="2610"/>
  <outline>
    <contour>
      <point x="30" y="0" type="line"/>
      <point x="530" y="0" type="line"/>
      <point x="530" y="500" type="line"/>
      <point x="30" y="500" type="line"/>
    </contour>
    <contour>
      <point x="63" y="33" type="line"/>
      <point x="63" y="467" type="line"/>
      <point x="497" y="467" type="line"/>
      <point x="497" y="33" type="line"/>
    </contour>
  </outline>
</glyph>
<glyph name="ballotBoxWithCheck" format="2">
  <advance width="560"/>
  <unicode hex="2611"/>
  <outline>
    <contour>
      <point x="225" y="81" type="line"/>
      <point x="462" y="399" type="line"/>
      <point x="436" y="418" type="line"/>
      <point x="226" y="135" type="line"/>
      <point x="126" y="267" type="line"/>
      <point x="101" y="246" type="line"/>
    </contour>
    <contour>
      <point x="30" y="0" type="line"/>
      <point x="530" y="0" type="line"/>
      <point x="530" y="500" type="line"/>
      <point x="30" y="500" type="line"/>
    </contour>
    <contour>
      <point x="63" y="33" type="line"/>
      <point x="63" y="467" type="line"/>
      <point x="497" y="467" type="line"/>
      <point x="497" y="33" type="line"/>
    </contour>
  </outline>
</glyph>
<glyph name="ballotBoxWithX" format="2">
  <advance width="560"/>
  <unicode hex="2612"/>
  <outline>
    <contour>
      <point x="35" y="0" type="line"/>
      <point x="525" y="0" type="line"/>
      <point x="525" y="490" type="line"/>
      <point x="35" y="490" type="line"/>
    </contour>
    <contour>
      <point x="67" y="32" type="line"/>
      <point x="67" y="458" type="line"/>
      <point x="493" y="458" type="line"/>
      <point x="493" y="32" type="line"/>
    </contour>
    <contour>
      <point x="406" y="99" type="line"/>
      <point x="428" y="121" type="line"/>
      <point x="155" y="394" type="line"/>
      <point x="133" y="372" type="line"/>
    </contour>
    <contour>
      <point x="155" y="99" type="line"/>
      <point x="428" y="372" type="line"/>
      <point x="406" y="394" type="line"/>
      <point x="133" y="121" type="line"/>
    </contour>
  </outline>
</glyph>
<glyph name="ballotX" format="2">
  <advance width="560"/>
  <unicode hex="2717"/>
  <outline>
    <contour>
      <point x="493" y="23" type="line"/>
      <point x="514" y="44" type="line"/>
      <point x="68" y="490" type="line"/>
      <point x="47" y="469" type="line"/>
    </contour>
    <contour>
      <point x="68" y="23" type="line"/>
      <point x="514" y="469" type="line"/>
      <point x="493" y="490" type="line"/>
      <point x="47" y="44" type="line"/>
    </contour>
  </outline>
</glyph>
